<?xml version="1.0" standalone="no"?>
<!DOCTYPE svg PUBLIC "-//W3C//DTD SVG 20010904//EN"
 "http://www.w3.org/TR/2001/REC-SVG-20010904/DTD/svg10.dtd">
<svg version="1.0" xmlns="http://www.w3.org/2000/svg"
 width="2480.000000pt" height="3508.000000pt" viewBox="0 0 2480.000000 3508.000000"
 preserveAspectRatio="xMidYMid meet">

<g transform="translate(0.000000,3508.000000) scale(0.100000,-0.100000)"
fill="#000000" stroke="none">
<path d="M8180 19784 c-117 -21 -154 -29 -228 -50 -162 -47 -527 -188 -882
-342 -223 -96 -261 -113 -470 -207 -118 -54 -258 -117 -310 -140 -92 -41 -154
-70 -625 -290 -434 -203 -694 -324 -935 -436 -135 -62 -452 -217 -705 -344
-954 -481 -1605 -863 -2055 -1209 -673 -517 -900 -811 -900 -1166 0 -242 110
-422 320 -523 113 -54 186 -73 338 -88 85 -9 129 -9 185 0 481 79 1180 436
2092 1068 103 72 667 475 935 669 1352 979 1981 1407 2465 1676 114 63 187 96
295 130 64 20 96 23 220 23 142 0 146 -1 198 -30 30 -16 75 -53 102 -82 49
-54 54 -63 140 -303 91 -249 217 -468 377 -653 100 -115 182 -186 286 -245
242 -138 537 -203 833 -182 384 28 740 115 1579 385 712 230 1057 301 1283
265 164 -27 244 -81 487 -326 207 -208 296 -281 422 -344 103 -51 173 -75 275
-95 209 -39 328 -12 828 193 167 68 255 92 338 92 111 0 166 -31 356 -202 195
-176 330 -257 453 -273 119 -16 339 37 808 195 182 61 375 120 430 131 91 19
112 19 245 9 234 -17 353 -48 454 -118 21 -14 79 -79 128 -144 206 -270 401
-432 683 -568 150 -72 227 -101 385 -144 398 -108 857 -132 1176 -60 424 94
684 276 847 591 136 264 206 555 207 858 0 266 -53 475 -177 689 -260 452
-643 651 -1313 682 -354 17 -802 -70 -1070 -207 -175 -89 -290 -180 -495 -395
-81 -86 -173 -174 -203 -196 -122 -90 -336 -178 -524 -214 -56 -11 -165 -17
-334 -21 -311 -6 -459 7 -989 91 -405 64 -584 59 -1122 -29 -677 -111 -906
-127 -1088 -75 -101 28 -269 115 -430 221 -77 50 -183 119 -235 152 -596 376
-1029 401 -1989 111 -119 -36 -268 -81 -330 -100 -299 -90 -585 -149 -779
-160 -505 -28 -906 197 -1080 606 -23 52 -66 191 -97 307 -87 332 -138 470
-220 593 -76 115 -155 171 -285 205 -62 16 -250 28 -300 19z m11447 -1973
c280 -86 485 -314 457 -510 -18 -132 -66 -225 -163 -321 -113 -110 -238 -156
-396 -147 -258 15 -497 143 -579 310 -65 133 -71 296 -16 413 59 122 215 231
385 268 88 20 226 14 312 -13z"/>
<path d="M13580 19779 c-253 -30 -412 -235 -397 -509 12 -214 108 -346 298
-410 182 -62 373 -20 488 106 103 113 143 249 122 416 -15 116 -51 199 -122
273 -60 64 -126 99 -224 120 -76 16 -71 16 -165 4z"/>
<path d="M21679 16140 c-210 -33 -399 -204 -462 -419 -27 -93 -29 -284 -3
-361 27 -80 60 -131 119 -187 98 -93 216 -133 417 -140 196 -7 291 21 392 115
134 125 207 371 167 564 -15 73 -70 183 -119 240 -116 134 -336 215 -511 188z"/>
</g>
</svg>
