<?xml version="1.0" standalone="no"?>
<!DOCTYPE svg PUBLIC "-//W3C//DTD SVG 20010904//EN"
 "http://www.w3.org/TR/2001/REC-SVG-20010904/DTD/svg10.dtd">
<svg version="1.0" xmlns="http://www.w3.org/2000/svg"
 width="600.000000pt" height="400.000000pt" viewBox="0 0 600.000000 400.000000"
 preserveAspectRatio="xMidYMid meet">

<g transform="translate(0.000000,400.000000) scale(0.100000,-0.100000)"
fill="#000000" stroke="none">
<path d="M1605 2456 l-40 -14 50 4 50 4 0 -32 c0 -25 -6 -35 -23 -43 -18 -8
-3 -10 65 -10 73 -1 100 -6 155 -29 l68 -27 40 28 c22 15 40 30 40 33 0 8 -81
54 -130 74 -59 24 -219 31 -275 12z"/>
<path d="M2722 2280 c-65 -14 -143 -60 -179 -108 -41 -54 -57 -109 -55 -190 3
-194 187 -327 384 -278 61 16 137 59 145 82 2 7 -15 19 -39 28 -42 16 -46 16
-88 -3 -83 -38 -182 -19 -242 45 -35 38 -49 78 -49 141 0 61 17 99 65 141 61
53 141 65 214 32 l43 -20 35 28 c19 15 34 30 34 34 0 11 -53 45 -90 56 -53 17
-130 22 -178 12z"/>
<path d="M1915 2144 c-99 -74 -185 -137 -192 -140 -6 -3 -43 14 -81 39 -121
78 -112 78 -112 3 l0 -64 91 -58 c83 -52 93 -56 113 -44 25 15 396 288 411
301 10 10 -31 100 -44 98 -3 0 -87 -61 -186 -135z"/>
<path d="M3130 1989 l0 -291 173 4 c150 3 178 6 218 24 87 41 121 136 81 227
-32 73 -76 90 -234 95 l-128 4 0 64 0 64 135 0 134 0 53 46 c29 26 55 48 57
50 2 2 -107 4 -242 4 l-247 0 0 -291z m341 -43 c19 -8 39 -48 39 -77 0 -11
-13 -34 -29 -50 -29 -28 -32 -29 -135 -29 l-106 0 0 84 c0 46 4 86 10 88 16 5
204 -8 221 -16z"/>
<path d="M3750 1990 l0 -290 215 0 215 0 0 45 0 44 -157 3 -158 3 -3 78 -3 77
141 0 140 0 0 45 0 45 -140 0 -141 0 3 72 3 72 100 -3 100 -2 55 50 55 50
-212 1 -213 0 0 -290z"/>
<path d="M4317 2273 c-4 -3 -7 -134 -7 -290 l0 -283 55 0 55 0 0 79 c0 79 0
79 28 85 15 3 61 5 104 4 64 -1 85 3 132 26 75 37 106 88 106 175 0 105 -46
167 -147 197 -48 14 -313 20 -326 7z m334 -131 c21 -23 29 -43 29 -70 0 -79
-54 -112 -180 -112 l-80 0 0 111 0 111 101 -4 c99 -3 101 -3 130 -36z"/>
<path d="M2144 2027 c-37 -28 -43 -39 -53 -96 -13 -70 -45 -141 -86 -190 -27
-31 -24 -41 7 -18 16 13 68 16 68 4 0 -4 0 -14 0 -23 0 -8 -4 -13 -9 -10 -5 3
-11 -5 -13 -19 -6 -31 -4 -31 23 -2 68 71 119 207 119 316 0 39 -3 71 -7 71
-5 0 -27 -15 -49 -33z"/>
</g>
</svg>
